<svg width="72" height="74" viewBox="0 0 72 74" fill="none" xmlns="http://www.w3.org/2000/svg">
<path d="M65.591 0.674287C65.591 0.674287 72.211 -2.53759 71.6896 5.19953C71.5183 8.38527 69.9054 19.5393 68.6646 31.602L64.3877 67.3369C64.3877 67.3369 64.0406 72.5708 60.7277 73.4943C57.4149 74.4177 52.4237 70.3431 51.4987 69.4367C50.7589 68.7573 37.636 58.573 33.0093 53.5868C31.714 52.227 30.229 49.503 33.164 46.3061L52.4177 23.478C54.6175 20.739 56.8026 14.3601 47.6216 22.1324L21.9148 43.8494C21.9148 43.8494 18.9761 46.1362 13.4405 44.1112L1.44589 39.6099C1.44589 39.6099 -2.9899 36.2155 4.55038 32.7722C22.9317 22.005 45.5498 10.9931 65.591 0.674287Z" fill="#9DBCFF"/>
</svg>
