<svg width="118" height="97" viewBox="0 0 118 97" fill="none" xmlns="http://www.w3.org/2000/svg">
<path d="M110.086 24.7609C104.81 17.1436 97.6531 11.113 88.6142 6.66772C79.574 2.2222 69.7047 0 58.9995 0C48.2956 0 38.4231 2.22288 29.3847 6.66772C20.345 11.1128 13.1888 17.1436 7.91284 24.7609C2.6377 32.378 0 40.6958 0 49.7143C0 60.5476 3.75085 70.2891 11.2544 78.9414C18.7572 87.5944 28.4497 93.5819 40.331 96.9047C41.7141 97.121 42.7379 96.9688 43.4036 96.4521C44.0695 95.9347 44.4021 95.2867 44.4021 94.5108C44.4021 94.3814 44.3889 93.2166 44.3633 91.0153C44.337 88.814 44.3246 86.8936 44.3246 85.255L42.5576 85.5125C41.431 85.6864 40.0098 85.7601 38.2939 85.7393C36.5789 85.7191 34.7984 85.5676 32.955 85.286C31.1108 85.0069 29.3955 84.3596 27.8077 83.3454C26.2207 82.3313 25.0941 81.0037 24.4281 79.3649L23.6599 77.8753C23.1479 76.8836 22.3418 75.7819 21.2405 74.5743C20.1392 73.3656 19.0255 72.5462 17.8989 72.1147L17.361 71.7903C17.0026 71.5747 16.67 71.3146 16.3625 71.0128C16.0552 70.711 15.8251 70.409 15.6715 70.1066C15.5176 69.8039 15.6451 69.5556 16.0555 69.3608C16.4658 69.1661 17.2074 69.0715 18.2834 69.0715L19.8192 69.2649C20.8436 69.4379 22.1106 69.9547 23.622 70.8183C25.1326 71.6812 26.3743 72.8031 27.3476 74.1834C28.5261 75.9533 29.946 77.3019 31.6113 78.2299C33.2752 79.1579 34.9529 79.6211 36.6426 79.6211C38.3324 79.6211 39.7918 79.5132 41.0215 79.2985C42.2498 79.0826 43.4022 78.7582 44.4782 78.327C44.9392 75.4343 46.1941 73.2121 48.242 71.6588C45.3231 71.4003 42.6989 71.011 40.3679 70.4934C38.0383 69.9751 35.6309 69.1339 33.1474 67.9676C30.6625 66.8029 28.6012 65.3565 26.9628 63.6311C25.3242 61.9048 23.9793 59.6384 22.9302 56.8339C21.8806 54.0283 21.3556 50.792 21.3556 47.1239C21.3556 41.9011 23.379 37.4568 27.4251 33.7882C25.5297 29.8617 25.7087 25.4599 27.9624 20.5834C29.4477 20.1945 31.6503 20.4863 34.5692 21.457C37.4886 22.4281 39.6261 23.2599 40.9838 23.9497C42.3415 24.6392 43.4294 25.2234 44.249 25.6973C49.0129 24.5757 53.9291 24.0147 58.9989 24.0147C64.0688 24.0147 68.986 24.5757 73.7502 25.6973L76.6694 24.1444C78.6656 23.1083 81.0229 22.1587 83.7357 21.2955C86.4501 20.4328 88.5257 20.1952 89.9604 20.5841C92.2642 25.4608 92.4695 29.8624 90.5736 33.7889C94.6193 37.4574 96.6436 41.903 96.6436 47.1246C96.6436 50.7927 96.1167 54.0392 95.0687 56.8663C94.0193 59.6939 92.6629 61.9581 90.999 63.6635C89.3332 65.3688 87.2586 66.8038 84.7751 67.9683C82.2911 69.1337 79.8829 69.9748 77.5533 70.4931C75.2226 71.0115 72.5983 71.401 69.6794 71.6599C72.3416 73.6012 73.673 76.6655 73.673 80.8514V94.509C73.673 95.2849 73.9932 95.9327 74.6341 96.4503C75.2742 96.967 76.2851 97.1192 77.6682 96.9026C89.5511 93.5803 99.2436 87.5926 106.746 78.9396C114.248 70.2873 118 60.5457 118 49.7125C117.997 40.6952 115.358 32.378 110.086 24.7609Z" fill="#9DBCFF"/>
</svg>
