<svg width="73" height="76" viewBox="0 0 73 76" fill="none" xmlns="http://www.w3.org/2000/svg">
<path d="M5.1313 5.34217C0 10.6843 0 19.2835 0 36.48V39.52C0 56.7165 0 65.3157 5.1313 70.6578C10.2626 76 18.5223 76 35.04 76H37.96C54.4777 76 62.7375 76 67.8687 70.6578C73 65.3157 73 56.7165 73 39.52V36.48C73 19.2835 73 10.6843 67.8687 5.34217C62.7375 0 54.4777 0 37.96 0H35.04C18.5223 0 10.2626 0 5.1313 5.34217ZM12.3188 23.1167H20.653C20.9267 37.62 27.0708 43.7633 31.9375 45.03V23.1167H39.785V35.625C44.5908 35.0867 49.64 29.3867 51.3433 23.1167H59.1908C58.5488 26.3684 57.2692 29.4471 55.4321 32.1607C53.5952 34.8742 51.2403 37.1638 48.5145 38.8867C51.5579 40.4596 54.246 42.6872 56.401 45.422C58.5559 48.157 60.1289 51.337 61.0158 54.7517H52.3775C51.5815 51.7855 49.9617 49.1303 47.7213 47.119C45.4811 45.1079 42.7202 43.8303 39.785 43.4467V54.7517H38.842C22.2042 54.7517 12.7142 42.8767 12.3188 23.1167Z" fill="#9DBCFF"/>
</svg>
